<svg xmlns="http://www.w3.org/2000/svg" viewBox="0 0 128 128" role="img" aria-labelledby="title">
  <title>SwasthaParivar</title>
  <defs>
    <linearGradient id="bg" x1="0%" x2="100%" y1="0%" y2="100%">
      <stop offset="0%" stop-color="#17a493" />
      <stop offset="100%" stop-color="#0c6f67" />
    </linearGradient>
  </defs>
  <rect width="128" height="128" rx="32" fill="url(#bg)" />
  <path d="M64 97c-2.9 0-5.8-1.1-8-3.2L35 74.8C27.7 67.7 27.4 55.9 34.4 48.5c6.8-7.2 18.1-7.7 25.5-1.2l4.1 3.7 4.1-3.7c7.4-6.5 18.7-6 25.5 1.2 7 7.4 6.7 19.2-.6 26.3L72 93.8c-2.2 2.1-5.1 3.2-8 3.2z" fill="#fff" />
  <path d="M47 63h11l6-11 8 21 5-10h14" fill="none" stroke="#d8fff8" stroke-linecap="round" stroke-linejoin="round" stroke-width="6" />
</svg>
